HIERARCHY
ROOT Hips
{
	OFFSET 0.000000 0.000000 0.000000
	CHANNELS 6 Xposition Yposition Zposition Xrotation Yrotation Zrotation
	JOINT LeftUpLeg_virtual
	{
		OFFSET 0.000000 0.000000 0.000000
		CHANNELS 3 Xrotation Yrotation Zrotation
		JOINT LeftUpLeg
		{
			OFFSET 13.026900 -6.336304 -1.092800
			CHANNELS 3 Xrotation Yrotation Zrotation
			JOINT LeftLeg
			{
				OFFSET 0.524474 -46.096886 9.782700
				CHANNELS 3 Xrotation Yrotation Zrotation
				JOINT LeftFoot
				{
					OFFSET -0.524474 -53.427422 -12.948200
					CHANNELS 3 Xrotation Yrotation Zrotation
					JOINT LeftToeBase
					{
						OFFSET 0.192200 -14.009700 16.364100
						CHANNELS 3 Xrotation Yrotation Zrotation
						JOINT LeftToe_End
						{
							OFFSET -1.784700 -0.561700 9.474800
							CHANNELS 3 Xrotation Yrotation Zrotation
							End Site
							{
								OFFSET 0 0 0
							}
						}
					}
				}
			}
		}
	}
	JOINT RightUpLeg_virtual
	{
		OFFSET 0.000000 0.000000 0.000000
		CHANNELS 3 Xrotation Yrotation Zrotation
		JOINT RightUpLeg
		{
			OFFSET -12.883000 -6.336304 -1.092800
			CHANNELS 3 Xrotation Yrotation Zrotation
			JOINT RightLeg
			{
				OFFSET -0.524587 -46.096825 9.782800
				CHANNELS 3 Xrotation Yrotation Zrotation
				JOINT RightFoot
				{
					OFFSET 0.524587 -53.427383 -12.948300
					CHANNELS 3 Xrotation Yrotation Zrotation
					JOINT RightToeBase
					{
						OFFSET -0.192200 -14.009700 16.364100
						CHANNELS 3 Xrotation Yrotation Zrotation
						JOINT RightToe_End
						{
							OFFSET 1.784700 -0.561700 9.474800
							CHANNELS 3 Xrotation Yrotation Zrotation
							End Site
							{
								OFFSET 0 0 0
							}
						}
					}
				}
			}
		}
	}
	JOINT Spine_virtual
	{
		OFFSET 0.000000 0.000000 0.000000
		CHANNELS 3 Xrotation Yrotation Zrotation
		JOINT Spine
		{
			OFFSET 0.072000 7.257294 -0.789700
			CHANNELS 3 Xrotation Yrotation Zrotation
			JOINT Spine1
			{
				OFFSET 0.000000 12.508769 -0.658067
				CHANNELS 3 Xrotation Yrotation Zrotation
				JOINT Spine1_split
				{
					OFFSET 0.000000 12.508769 -0.658067
					CHANNELS 3 Xrotation Yrotation Zrotation
					JOINT Spine2
					{
						OFFSET 0.000000 12.508769 -0.658067
						CHANNELS 3 Xrotation Yrotation Zrotation
						JOINT Neck_virtual
						{
							OFFSET 0.000000 0.000000 0.000000
							CHANNELS 3 Xrotation Yrotation Zrotation
							JOINT Neck
							{
								OFFSET 0.000000 14.033295 7.520400
								CHANNELS 3 Xrotation Yrotation Zrotation
								JOINT Head
								{
									OFFSET 0.000000 8.198502 5.703100
									CHANNELS 3 Xrotation Yrotation Zrotation
									JOINT HeadTop_End
									{
										OFFSET 0.000000 17.760803 13.332701
										CHANNELS 3 Xrotation Yrotation Zrotation
										End Site
										{
											OFFSET 0 0 0
										}
									}
								}
							}
						}
						JOINT LeftShoulder_virtual
						{
							OFFSET 0.000000 0.000000 0.000000
							CHANNELS 3 Xrotation Yrotation Zrotation
							JOINT LeftShoulder
							{
								OFFSET 6.292450 5.785301 -0.669000
								CHANNELS 3 Xrotation Yrotation Zrotation
								JOINT LeftShoulder_split
								{
									OFFSET 6.292450 5.785301 -0.669000
									CHANNELS 3 Xrotation Yrotation Zrotation
									JOINT LeftArm
									{
										OFFSET 13.907140 -6.093903 1.965100
										CHANNELS 3 Xrotation Yrotation Zrotation
										JOINT LeftForeArm
										{
											OFFSET 34.140198 0.000000 0.000000
											CHANNELS 3 Xrotation Yrotation Zrotation
											JOINT LeftHand
											{
												OFFSET 40.960209 0.000000 0.000000
												CHANNELS 3 Xrotation Yrotation Zrotation
												End Site
												{
													OFFSET 0 0 0
												}
											}
										}
									}
								}
							}
						}
						JOINT RightShoulder_virtual
						{
							OFFSET 0.000000 0.000000 0.000000
							CHANNELS 3 Xrotation Yrotation Zrotation
							JOINT RightShoulder
							{
								OFFSET -6.292450 5.785301 -0.669000
								CHANNELS 3 Xrotation Yrotation Zrotation
								JOINT RightShoulder_split
								{
									OFFSET -6.292450 5.785301 -0.669000
									CHANNELS 3 Xrotation Yrotation Zrotation
									JOINT RightArm
									{
										OFFSET -13.907140 -6.093903 1.965100
										CHANNELS 3 Xrotation Yrotation Zrotation
										JOINT RightForeArm
										{
											OFFSET -34.140198 0.000000 0.000000
											CHANNELS 3 Xrotation Yrotation Zrotation
											JOINT RightHand
											{
												OFFSET -40.960209 0.000000 0.000000
												CHANNELS 3 Xrotation Yrotation Zrotation
												End Site
												{
													OFFSET 0 0 0
												}
											}
										}
									}
								}
							}
						}
					}
				}
			}
		}
	}
}
MOTION
Frames: 6
Frame Time: 0.03333333
-31.231045 99.584457 -13.756163 0.000000 0.000000 0.000000 36.032724 4.894986 -2.894996 -58.557787 -20.915812 24.430799 30.599565 9.674759 -2.814390 4.266464 7.657468 -28.995567 -1.113728 -0.000003 0.000002 0.000000 0.000000 0.000000 36.032724 4.894986 -2.894996 -65.889332 0.232452 -18.971779 47.333611 -6.202490 -0.947873 -13.127624 -3.400554 18.510368 -0.000105 0.000002 0.000002 0.000000 0.000000 0.000000 36.032724 4.894986 -2.894996 11.190167 1.050428 -0.071899 9.606825 1.909023 0.899772 0.000000 0.000000 0.000000 0.000000 0.000000 0.000000 9.603336 2.011866 0.811204 -0.524616 -2.137135 -0.972091 -33.188258 -13.301679 4.013186 0.000000 0.000000 0.000000 9.603336 2.011866 0.811204 1.414468 -22.723537 -8.784365 0.000000 0.000000 0.000000 11.762077 -10.125574 -53.585375 0.000034 -69.152237 0.000031 0.000000 0.000000 0.000000 9.603336 2.011866 0.811204 3.076665 26.719391 7.630348 0.000000 0.000000 0.000000 -0.858345 44.777890 17.984948 -0.000003 15.067918 0.000006 0.000000 0.000000 0.000000 
-30.055305 98.138847 -13.842787 0.000000 0.000000 0.000000 39.097741 4.807344 -2.754912 -65.058822 -19.024665 23.896646 34.206182 9.935559 -3.034879 3.252077 4.676923 -28.134106 -1.425599 -0.000007 -0.000001 0.000000 0.000000 0.000000 39.097741 4.807344 -2.754912 -70.172435 0.944451 -19.906769 48.930010 -5.559272 -1.416399 -13.358738 -3.610139 19.416985 -0.000088 -0.000005 -0.000008 0.000000 0.000000 0.000000 39.097741 4.807344 -2.754912 11.468998 1.417167 0.084303 9.969254 2.124027 1.135354 0.000000 0.000000 0.000000 0.000000 0.000000 0.000000 9.956438 2.298935 1.031303 -0.838457 -2.418144 -1.228871 -35.049006 -14.115563 3.169138 0.000000 0.000000 0.000000 9.956438 2.298935 1.031303 1.450541 -23.720941 -8.828585 0.000000 0.000000 0.000000 11.826641 -9.065753 -52.805606 0.000016 -71.719889 0.000002 0.000000 0.000000 0.000000 9.956438 2.298935 1.031303 3.294680 27.536625 7.886915 0.000000 0.000000 0.000000 -5.270271 43.242898 15.996346 -0.000008 15.853533 0.000006 0.000000 0.000000 0.000000 
-28.663322 96.651619 -13.772322 0.000000 0.000000 0.000000 42.373418 5.397406 -2.292080 -71.981376 -16.318664 22.602018 37.520019 10.050389 -2.887598 2.265194 1.418473 -27.010092 -1.444609 0.000004 -0.000005 0.000000 0.000000 0.000000 42.373418 5.397406 -2.292080 -74.503075 1.903593 -21.943468 50.646901 -4.718191 -1.591303 -13.728051 -3.856259 20.367078 -0.000143 0.000003 -0.000003 0.000000 0.000000 0.000000 42.373418 5.397406 -2.292080 11.567329 1.632453 0.226514 10.145544 2.207577 1.318639 0.000000 0.000000 0.000000 0.000000 0.000000 0.000000 10.126056 2.429383 1.208036 -1.038180 -2.677154 -1.574971 -36.658677 -14.801478 1.863105 0.000000 0.000000 0.000000 10.126056 2.429383 1.208036 1.497484 -25.154974 -8.949474 0.000000 0.000000 0.000000 13.817586 -10.051110 -52.570405 0.000027 -73.606995 0.000047 0.000000 0.000000 0.000000 10.126056 2.429383 1.208036 3.280503 27.664715 7.784452 0.000000 0.000000 0.000000 -9.619635 42.447860 14.900324 -0.000005 16.326066 0.000005 0.000000 0.000000 0.000000 
-27.251335 94.922531 -13.609617 0.000000 0.000000 0.000000 45.366646 6.085418 -1.686796 -77.778998 -15.466939 21.189359 41.207819 9.156340 -3.525551 1.128678 1.085598 -26.207508 -1.560273 0.000007 -0.000001 0.000000 0.000000 0.000000 45.366646 6.085418 -1.686796 -78.224517 4.156802 -24.581060 52.814527 -4.037117 -0.458641 -14.296170 -4.168256 21.179660 -0.000248 0.000002 -0.000004 0.000000 0.000000 0.000000 45.366646 6.085418 -1.686796 11.742074 1.827619 0.121487 10.419598 2.265461 1.337532 0.000000 0.000000 0.000000 0.000000 0.000000 0.000000 10.390050 2.546633 1.219551 -1.528109 -2.995713 -1.675190 -37.973045 -15.665143 0.898765 0.000000 0.000000 0.000000 10.390050 2.546633 1.219551 1.615772 -25.353608 -7.828257 0.000000 0.000000 0.000000 14.967017 -11.945076 -53.301109 -0.000036 -74.787757 -0.000021 0.000000 0.000000 0.000000 10.390050 2.546633 1.219551 3.298621 27.605150 7.865043 0.000000 0.000000 0.000000 -13.087427 42.442293 12.745406 -0.000001 16.666191 0.000004 0.000000 0.000000 0.000000 
-26.059875 92.689026 -13.258459 0.000000 0.000000 0.000000 47.978572 6.833142 -1.031488 -82.668334 -16.080743 20.224762 45.451282 8.525548 -5.102262 -0.635477 1.533221 -25.753674 -1.535717 -0.000003 -0.000003 0.000000 0.000000 0.000000 47.978572 6.833142 -1.031488 -82.260558 5.878165 -26.513942 55.783903 -3.151587 -0.832652 -15.315116 -4.636899 22.348722 -0.000336 -0.000000 0.000002 0.000000 0.000000 0.000000 47.978572 6.833142 -1.031488 11.948543 2.102297 -0.136113 10.795018 2.436690 1.061354 0.000000 0.000000 0.000000 0.000000 0.000000 0.000000 10.760787 2.723266 0.941219 -2.162289 -3.367357 -1.619733 -39.700632 -17.011450 0.064701 0.000000 0.000000 0.000000 10.760787 2.723266 0.941219 1.700058 -25.094733 -6.831347 0.000000 0.000000 0.000000 16.047328 -13.664763 -53.668638 0.000008 -75.388814 0.000018 0.000000 0.000000 0.000000 10.760787 2.723266 0.941219 3.258690 27.386393 7.855292 0.000000 0.000000 0.000000 -15.066776 42.716071 9.793263 -0.000002 17.097116 0.000017 0.000000 0.000000 0.000000 
-24.887005 90.084427 -12.605047 0.000000 0.000000 0.000000 50.088663 7.905080 -0.250237 -87.859674 -14.672797 18.892686 49.876138 6.436708 -5.437780 -2.798869 2.036909 -25.118712 -1.509155 0.000002 -0.000007 0.000000 0.000000 0.000000 50.088663 7.905080 -0.250237 -85.605411 8.278898 -28.468756 59.381630 -2.575329 -1.370402 -16.783757 -5.306253 23.907554 -0.000390 -0.000001 -0.000005 0.000000 0.000000 0.000000 50.088663 7.905080 -0.250237 12.216493 2.384219 -0.285192 11.358263 2.601991 0.991494 0.000000 0.000000 0.000000 0.000000 0.000000 0.000000 11.314936 2.925653 0.871747 -2.990103 -3.737704 -1.772748 -41.592338 -18.230567 -0.951043 0.000000 0.000000 0.000000 11.314936 2.925653 0.871747 1.775707 -25.335047 -6.187620 0.000000 0.000000 0.000000 16.636070 -14.716433 -53.846418 0.000065 -75.508841 0.000040 0.000000 0.000000 0.000000 11.314936 2.925653 0.871747 3.167536 27.281644 7.638709 0.000000 0.000000 0.000000 -15.931017 42.588463 6.111240 -0.000008 17.599217 -0.000005 0.000000 0.000000 0.000000 
